<svg xmlns="http://www.w3.org/2000/svg" version="1.1" xmlns:xlink="http://www.w3.org/1999/xlink" xmlns:svgjs="http://svgjs.dev/svgjs" viewBox="0 0 1422 800"><g stroke-width="3.5" stroke="hsl(0, 0%, 100%)" fill="none" stroke-linecap="round"><path d="M 0 1976 Q 355.5 35 711 400 Q 1066.5 765 1422 1976" opacity="0.36"></path><path d="M 0 1900 Q 355.5 35 711 400 Q 1066.5 765 1422 1900" opacity="0.88"></path><path d="M 0 1824 Q 355.5 35 711 400 Q 1066.5 765 1422 1824" opacity="0.97"></path><path d="M 0 1748 Q 355.5 35 711 400 Q 1066.5 765 1422 1748" opacity="0.68"></path><path d="M 0 1672 Q 355.5 35 711 400 Q 1066.5 765 1422 1672" opacity="0.39"></path><path d="M 0 1596 Q 355.5 35 711 400 Q 1066.5 765 1422 1596" opacity="0.94"></path><path d="M 0 1520 Q 355.5 35 711 400 Q 1066.5 765 1422 1520" opacity="0.38"></path><path d="M 0 1444 Q 355.5 35 711 400 Q 1066.5 765 1422 1444" opacity="0.34"></path><path d="M 0 1368 Q 355.5 35 711 400 Q 1066.5 765 1422 1368" opacity="0.10"></path><path d="M 0 1292 Q 355.5 35 711 400 Q 1066.5 765 1422 1292" opacity="0.07"></path><path d="M 0 1216 Q 355.5 35 711 400 Q 1066.5 765 1422 1216" opacity="0.66"></path><path d="M 0 1140 Q 355.5 35 711 400 Q 1066.5 765 1422 1140" opacity="0.20"></path><path d="M 0 1064 Q 355.5 35 711 400 Q 1066.5 765 1422 1064" opacity="0.25"></path><path d="M 0 988 Q 355.5 35 711 400 Q 1066.5 765 1422 988" opacity="0.87"></path><path d="M 0 912 Q 355.5 35 711 400 Q 1066.5 765 1422 912" opacity="0.43"></path><path d="M 0 836 Q 355.5 35 711 400 Q 1066.5 765 1422 836" opacity="0.70"></path><path d="M 0 760 Q 355.5 35 711 400 Q 1066.5 765 1422 760" opacity="0.73"></path><path d="M 0 684 Q 355.5 35 711 400 Q 1066.5 765 1422 684" opacity="0.87"></path><path d="M 0 608 Q 355.5 35 711 400 Q 1066.5 765 1422 608" opacity="0.72"></path><path d="M 0 532 Q 355.5 35 711 400 Q 1066.5 765 1422 532" opacity="0.90"></path><path d="M 0 456 Q 355.5 35 711 400 Q 1066.5 765 1422 456" opacity="0.30"></path><path d="M 0 380 Q 355.5 35 711 400 Q 1066.5 765 1422 380" opacity="0.59"></path><path d="M 0 304 Q 355.5 35 711 400 Q 1066.5 765 1422 304" opacity="0.64"></path><path d="M 0 228 Q 355.5 35 711 400 Q 1066.5 765 1422 228" opacity="0.41"></path><path d="M 0 152 Q 355.5 35 711 400 Q 1066.5 765 1422 152" opacity="0.15"></path></g></svg>